<svg height="512" viewBox="0 0 60 60" width="512" xmlns="http://www.w3.org/2000/svg"><g id="Page-1" fill="none" fill-rule="evenodd"><g id="003---Ok" fill="rgb(0,0,0)" fill-rule="nonzero"><path id="Shape" d="m30 0c-16.5685425 0-30 13.4314575-30 30s13.4314575 30 30 30 30-13.4314575 30-30c-.018737-16.5607751-13.4392249-29.98126296-30-30zm0 58c-15.463973 0-28-12.536027-28-28s12.536027-28 28-28 28 12.536027 28 28c-.0173046 15.4567995-12.5432005 27.9826954-28 28z"/><path id="Shape" d="m20 20c0-2.209139-1.790861-4-4-4s-4 1.790861-4 4 1.790861 4 4 4c2.208111-.0024799 3.9975201-1.791889 4-4zm-6 0c0-1.1045695.8954305-2 2-2s2 .8954305 2 2-.8954305 2-2 2c-1.1041125-.0011025-1.9988975-.8958875-2-2z"/><path id="Shape" d="m36 16c-2.209139 0-4 1.790861-4 4s1.790861 4 4 4 4-1.790861 4-4c-.0024799-2.208111-1.791889-3.9975201-4-4zm0 6c-1.1045695 0-2-.8954305-2-2s.8954305-2 2-2 2 .8954305 2 2c-.0011025 1.1041125-.8958875 1.9988975-2 2z"/><path id="Shape" d="m28 37h-5c-.5519878-.0007162-.9992838-.4480122-1-1 0-.5522847-.4477153-1-1-1s-1 .4477153-1 1c.0018187 1.6561003 1.3438997 2.9981813 3 3h5c.5522847 0 1-.4477153 1-1s-.4477153-1-1-1z"/><path id="Shape" d="m35 31h-18c-.5522847 0-1 .4477153-1 1s.4477153 1 1 1h18c.5522847 0 1-.4477153 1-1s-.4477153-1-1-1z"/></g></g></svg>